Coordinates
version=1
nRows=17
nColumns=24
inDegrees=yes

Units are S.I. units (second, meters, Newtons, ...)
If the header above contains a line with 'inDegrees', this indicates whether rotational values are in degrees (yes) or radians (no).

endheader
time	pelvis_tilt	pelvis_list	pelvis_rotation	pelvis_tx	pelvis_ty	pelvis_tz	hip_flexion_r	hip_adduction_r	hip_rotation_r	knee_angle_r	ankle_angle_r	subtalar_angle_r	mtp_angle_r	hip_flexion_l	hip_adduction_l	hip_rotation_l	knee_angle_l	ankle_angle_l	subtalar_angle_l	mtp_angle_l	lumbar_extension	lumbar_bending	lumbar_rotation
      0.56666667	      4.92575857	     -0.64050748	     -2.47041420	     -0.10741151	      0.72424862	     -0.28214595	     -7.67972338	      3.29068125	     -7.34491213	    -19.85988093	     29.92507833	      3.02893432	      0.00000000	     25.24765612	     -5.85289732	    -26.63181070	    -16.94066894	      3.55086129	     -5.95911606	      0.00000000	    -14.25909366	      0.48380647	     14.69135426
      0.57333333	      4.93958677	     -0.75229771	     -2.60257236	     -0.09919782	      0.72281574	     -0.28212823	     -8.37565960	      3.30121950	     -7.44975193	    -19.96440378	     30.28164019	      3.32683583	      0.00000000	     25.04229114	     -5.61827074	    -27.25975487	    -14.44529240	      3.76548920	     -4.67264545	      0.00000000	    -14.27493318	      0.51480177	     14.75791290
      0.58000000	      4.79456831	     -0.90888115	     -2.68058348	     -0.09116516	      0.72116941	     -0.28212030	     -8.80975152	      3.39883927	     -7.46468359	    -20.21719262	     30.54216949	      3.42145621	      0.00000000	     25.08818677	     -5.38129491	    -27.37224529	    -12.21578534	      3.84878704	     -3.74871852	      0.00000000	    -14.15264019	      0.60670521	     14.79245296
      0.58666667	      4.72223829	     -1.01079688	     -2.77772259	     -0.08292118	      0.71965013	     -0.28217295	     -9.29638109	      3.40909365	     -7.46933940	    -20.55376008	     30.76023839	      3.53989867	      0.00000000	     25.01370943	     -5.08569642	    -27.46430182	    -10.15840288	      3.95012474	     -2.81232423	      0.00000000	    -14.04833097	      0.61679704	     14.85235778
      0.59333333	      4.90468969	     -0.90850223	     -3.07029990	     -0.07419769	      0.71853146	     -0.28219594	    -10.08452879	      3.06133133	     -7.59430909	    -20.88633304	     31.08339308	      4.11034958	      0.00000000	     24.59145104	     -4.69456313	    -28.07969643	     -8.38797446	      4.29278504	     -1.19379884	      0.00000000	    -14.19377903	      0.36395419	     15.08777267
      0.60000000	      4.79741872	     -0.97654303	     -3.21617841	     -0.06578274	      0.71703209	     -0.28215528	    -10.42942274	      3.00881744	     -7.55862724	    -21.42940792	     31.18135612	      4.17483980	      0.00000000	     24.62513001	     -4.45653452	    -27.76172436	     -7.06667798	      4.45342260	     -0.49667411	      0.00000000	    -14.03088190	      0.28188055	     15.20379447
      0.60666667	      4.86323067	     -0.90425449	     -3.50376157	     -0.05705083	      0.71586926	     -0.28209449	    -10.94097556	      2.70918500	     -7.51944713	    -22.02525496	     31.28220719	      4.56075423	      0.00000000	     24.38543480	     -4.14011636	    -27.68978388	     -5.98007461	      4.69804978	      0.39957930	      0.00000000	    -14.03070872	      0.01847036	     15.47961123
      0.61333333	      4.82840055	     -0.96638117	     -3.63797779	     -0.04826151	      0.71462982	     -0.28192644	    -11.41079026	      2.66222053	     -7.42336896	    -22.50583312	     31.22334999	      4.56986847	      0.00000000	     24.55342586	     -4.08258726	    -27.40225138	     -5.76128504	      4.74294821	      0.52201874	      0.00000000	    -13.87358409	     -0.10894621	     15.51353464
      0.62000000	      4.82976217	     -0.90663311	     -3.90417318	     -0.03955730	      0.71353638	     -0.28190265	    -11.64573247	      2.38146757	     -7.21550990	    -23.47244443	     30.90695743	      4.60848111	      0.00000000	     24.28889513	     -3.75834037	    -26.40808711	     -5.10132964	      5.08624390	      0.91186851	      0.00000000	    -13.84207877	     -0.37222086	     15.75280813
      0.62666667	      4.89454681	     -0.83187496	     -4.13503679	     -0.03051467	      0.71262760	     -0.28176486	    -12.07215736	      2.10442497	     -7.02763772	    -24.24278729	     30.59804438	      4.68652788	      0.00000000	     24.17770364	     -3.57222681	    -25.73606584	     -5.23003522	      5.21513985	      1.01115533	      0.00000000	    -13.78712309	     -0.68725354	     15.95197398
      0.63333333	      5.00072324	     -0.74633910	     -4.39688779	     -0.02133663	      0.71186833	     -0.28161776	    -12.46396790	      1.78354730	     -6.80514892	    -25.14344851	     30.14850902	      4.79507815	      0.00000000	     23.99963480	     -3.39964201	    -24.91832346	     -5.62414302	      5.36290002	      1.03345868	      0.00000000	    -13.75876891	     -1.04294630	     16.18004015
      0.64000000	      5.08228182	     -0.65784561	     -4.71872959	     -0.01208459	      0.71115424	     -0.28152829	    -12.65638462	      1.34764336	     -6.81109544	    -26.33251315	     29.25646757	      5.00892180	      0.00000000	     23.79218371	     -3.22086109	    -23.90766095	     -6.16304459	      5.60647178	      0.52237831	      0.00000000	    -13.68572404	     -1.34019760	     16.76195027
      0.64666667	      5.25000939	     -0.55724804	     -4.96750964	     -0.00271226	      0.71061644	     -0.28135764	    -13.02911337	      1.00282882	     -6.48965716	    -27.37653430	     28.65779149	      5.17481838	      0.00000000	     23.60173943	     -3.07956472	    -22.96640536	     -7.11501676	      5.54389029	      0.37938004	      0.00000000	    -13.68741291	     -1.72881428	     16.95601262
      0.65333333	      5.19687978	     -0.52699388	     -5.25756453	      0.00652706	      0.70991310	     -0.28146222	    -12.87163695	      0.54917084	     -6.64659013	    -28.85142908	     27.22692780	      5.48655872	      0.00000000	     23.67324085	     -2.97193100	    -21.59620109	     -8.24525998	      5.33377883	     -0.94894388	      0.00000000	    -13.46293417	     -1.86999470	     17.56606426
      0.66000000	      5.17683209	     -0.47334831	     -5.45092220	      0.01568746	      0.70929724	     -0.28141027	    -12.71872140	      0.19530546	     -6.54013132	    -30.37453637	     26.29239188	      5.76054655	      0.00000000	     23.64136127	     -2.75839736	    -19.85671945	     -9.27664693	      4.25346547	     -3.17655006	      0.00000000	    -13.29084285	     -2.19942848	     17.77690297
      0.66666667	      5.40140129	     -0.40156327	     -5.69700271	      0.02529683	      0.70911920	     -0.28142719	    -12.87625994	     -0.28787788	     -6.56850087	    -31.78201807	     24.80006611	      6.07689116	      0.00000000	     23.41457018	     -2.62624305	    -18.88223659	    -10.62064284	      3.96543827	     -3.46260434	      0.00000000	    -13.32859502	     -2.51680637	     18.00837492
      0.67333333	      5.30769562	     -0.27625751	     -5.80367487	      0.03455405	      0.70862534	     -0.28181118	    -12.46179238	     -0.81444146	     -6.72492158	    -33.50847883	     23.16061863	      6.49429436	      0.00000000	     23.48521456	     -2.25137570	    -17.09807855	    -11.73347811	      2.57668574	     -5.84490636	      0.00000000	    -13.03967524	     -2.78575422	     18.26229328
